<?xml version="1.0" encoding="iso-8859-1"?>
<!-- Generator: Adobe Illustrator 19.1.0, SVG Export Plug-In . SVG Version: 6.00 Build 0)  -->
<svg version="1.1" id="Capa_1" xmlns="http://www.w3.org/2000/svg" xmlns:xlink="http://www.w3.org/1999/xlink" x="0px" y="0px"
	 viewBox="0 0 63 63" style="enable-background:new 0 0 63 63;" xml:space="preserve">
<g>
	<g id="group-27svg">
		<path id="path-1_18_" d="M63,48.51c0,3.039-2.463,5.503-5.5,5.503h-52c-3.037,0-5.5-2.464-5.5-5.503V9.487
			c0-3.039,2.463-5.503,5.5-5.503h52c3.037,0,5.5,2.464,5.5,5.503V48.51z M60,9.487c0-1.381-1.119-2.501-2.5-2.501h-52
			c-1.381,0-2.5,1.12-2.5,2.501V48.51c0,1.382,1.119,2.501,2.5,2.501h52c1.381,0,2.5-1.119,2.5-2.501V9.487z M56,41.506
			c0,3.039-2.463,5.503-5.5,5.503h-38c-3.037,0-5.5-2.464-5.5-5.503V15.491c0-3.04,2.463-5.503,5.5-5.503h38
			c3.037,0,5.5,2.463,5.5,5.503V41.506z M53,15.491c0-1.382-1.119-2.502-2.5-2.502h-38c-1.381,0-2.5,1.12-2.5,2.502v26.015
			c0,1.381,1.119,2.501,2.5,2.501h38c1.381,0,2.5-1.12,2.5-2.501V15.491z"/>
		<path id="path-2_18_" d="M60,57.515c0,0.829-0.672,1.501-1.5,1.501h-8c-0.828,0-1.5-0.672-1.5-1.501v-5.003
			c0-0.829,0.672-1.501,1.5-1.501h8c0.828,0,1.5,0.672,1.5,1.501V57.515z M52,56.014h5v-2.001h-5V56.014z"/>
		<path id="path-3_16_" d="M15,57.515c0,0.829-0.672,1.501-1.5,1.501h-8c-0.828,0-1.5-0.672-1.5-1.501v-5.003
			c0-0.829,0.672-1.501,1.5-1.501h8c0.828,0,1.5,0.672,1.5,1.501V57.515z M7,56.014h5v-2.001H7V56.014z"/>
		<path id="path-4_14_" d="M32.096,41.006c-0.996,0-1.848-0.879-2.124-1.839l-3.035-11.169h-1.599
			c-0.011,0.019-0.022,0.036-0.031,0.052l-1.632,2.82c-0.445,0.713-1.187,1.135-1.964,1.143c-0.724,0.016-1.401-0.351-1.798-0.96
			l-2.643-4.056H8.573c-0.828,0-1.5-0.672-1.5-1.5c0-0.829,0.672-1.501,1.5-1.501h9.125c0.749,0,1.443,0.377,1.857,1.009
			l2.143,3.292l1.114-1.928c0.221-0.41,0.742-1.373,1.831-1.373h3.004c1.14,0,1.848,1.042,2.13,2.017l2.308,8.312l1.665-6.458
			c0.261-0.976,1.114-1.87,2.123-1.87c0.012,0,0.024,0,0.037,0c0.978,0,1.819,0.834,2.104,1.773l1.057,3.557l4.218-6.093
			c0.216-0.387,0.724-1.238,1.774-1.238h7.51c0.828,0,1.5,0.673,1.5,1.501c0,0.829-0.672,1.501-1.5,1.501h-6.811
			c-0.021,0.032-0.04,0.062-0.058,0.087l-5.064,7.362c-0.52,0.734-1.399,1.1-2.248,0.968c-0.807-0.132-1.455-0.701-1.694-1.485
			l-0.75-2.45l-1.705,6.638c-0.261,0.977-1.114,1.888-2.124,1.888C32.111,41.006,32.103,41.006,32.096,41.006z"/>
	</g>
</g>
<g>
</g>
<g>
</g>
<g>
</g>
<g>
</g>
<g>
</g>
<g>
</g>
<g>
</g>
<g>
</g>
<g>
</g>
<g>
</g>
<g>
</g>
<g>
</g>
<g>
</g>
<g>
</g>
<g>
</g>
</svg>
